<?xml version="1.0" encoding="UTF-8"?>
<svg xmlns="http://www.w3.org/2000/svg" width="200" height="200" viewBox="0 0 200 200" fill="none">
  <!-- Background Circle -->
  <circle cx="100" cy="100" r="95" fill="#3366FF" opacity="0.1"/>
  <circle cx="100" cy="100" r="95" stroke="#3366FF" stroke-width="5"/>
  
  <!-- AI Letters -->
  <path d="M55 75 L65 125 M60 100 H70" stroke="#3366FF" stroke-width="8" stroke-linecap="round"/>
  <path d="M80 75 L80 125" stroke="#3366FF" stroke-width="8" stroke-linecap="round"/>
  
  <!-- Brain Icon -->
  <path d="M120 70 C135 60 150 70 145 85 C160 85 160 105 145 110 C155 120 145 135 130 130 C125 145 105 145 100 130 C85 140 70 125 80 110 C65 105 70 85 85 85 C80 70 100 60 120 70Z" 
        fill="none" stroke="#3366FF" stroke-width="4" stroke-linejoin="round"/>
  
  <!-- Analytics Lines -->
  <line x1="105" y1="160" x2="105" y2="140" stroke="#3366FF" stroke-width="6" stroke-linecap="round"/>
  <line x1="120" y1="160" x2="120" y2="130" stroke="#3366FF" stroke-width="6" stroke-linecap="round"/>
  <line x1="135" y1="160" x2="135" y2="150" stroke="#3366FF" stroke-width="6" stroke-linecap="round"/>
  <line x1="90" y1="160" x2="90" y2="145" stroke="#3366FF" stroke-width="6" stroke-linecap="round"/>
</svg>