<svg width="100" height="100" viewBox="0 0 100 100" xmlns="http://www.w3.org/2000/svg">
  <style>
    .graph-line {
      stroke: #1E88E5;
      stroke-width: 3;
      fill: none;
    }
    .graph-point {
      fill: #1E88E5;
    }
    .graph-bar {
      fill: #1E88E5;
    }
    .graph-background {
      fill: #F5F5F5;
      stroke: #E0E0E0;
      stroke-width: 1;
    }
    .graph-pie {
      stroke: #FFFFFF;
      stroke-width: 1;
    }
  </style>
  
  <!-- Background Circle -->
  <circle cx="50" cy="50" r="48" fill="#FFFFFF" stroke="#E0E0E0" stroke-width="1"/>
  
  <!-- Graph Elements -->
  <g transform="translate(20, 20)">
    <!-- Line Graph -->
    <rect class="graph-background" x="0" y="0" width="25" height="25" rx="3"/>
    <polyline class="graph-line" points="3,22 8,10 15,15 22,5"/>
    <circle class="graph-point" cx="3" cy="22" r="2"/>
    <circle class="graph-point" cx="8" cy="10" r="2"/>
    <circle class="graph-point" cx="15" cy="15" r="2"/>
    <circle class="graph-point" cx="22" cy="5" r="2"/>
    
    <!-- Bar Graph -->
    <rect class="graph-background" x="35" y="0" width="25" height="25" rx="3"/>
    <rect class="graph-bar" x="38" y="15" width="4" height="7"/>
    <rect class="graph-bar" x="44" y="10" width="4" height="12"/>
    <rect class="graph-bar" x="50" y="5" width="4" height="17"/>
    <rect class="graph-bar" x="56" y="12" width="4" height="10"/>
    
    <!-- Pie Chart -->
    <rect class="graph-background" x="0" y="35" width="25" height="25" rx="3"/>
    <path class="graph-pie" d="M12.5,47.5 L12.5,37.5 A10,10 0 0,1 22.5,47.5 z" fill="#1E88E5"/>
    <path class="graph-pie" d="M12.5,47.5 L22.5,47.5 A10,10 0 0,1 12.5,57.5 z" fill="#FF5722"/>
    <path class="graph-pie" d="M12.5,47.5 L12.5,57.5 A10,10 0 0,1 2.5,47.5 z" fill="#4CAF50"/>
    <path class="graph-pie" d="M12.5,47.5 L2.5,47.5 A10,10 0 0,1 12.5,37.5 z" fill="#FFC107"/>
    
    <!-- Data Points/Table -->
    <rect class="graph-background" x="35" y="35" width="25" height="25" rx="3"/>
    <line x1="38" y1="40" x2="58" y2="40" stroke="#1E88E5" stroke-width="1"/>
    <line x1="38" y1="45" x2="58" y2="45" stroke="#1E88E5" stroke-width="1"/>
    <line x1="38" y1="50" x2="58" y2="50" stroke="#1E88E5" stroke-width="1"/>
    <line x1="38" y1="55" x2="58" y2="55" stroke="#1E88E5" stroke-width="1"/>
    <line x1="42" y1="37" x2="42" y2="58" stroke="#1E88E5" stroke-width="1"/>
    <line x1="50" y1="37" x2="50" y2="58" stroke="#1E88E5" stroke-width="1"/>
  </g>
</svg>
