<?xml version="1.0" encoding="UTF-8"?>
<svg xmlns="http://www.w3.org/2000/svg" width="200" height="200" viewBox="0 0 200 200" fill="none">
  <!-- Gradient Background Circle -->
  <defs>
    <linearGradient id="gradient" x1="0%" y1="0%" x2="100%" y2="100%">
      <stop offset="0%" style="stop-color:#3366FF;stop-opacity:0.8" />
      <stop offset="100%" style="stop-color:#00CCFF;stop-opacity:0.8" />
    </linearGradient>
  </defs>
  
  <!-- Main Circle -->
  <circle cx="100" cy="100" r="90" fill="url(#gradient)" opacity="0.2"/>
  <circle cx="100" cy="100" r="90" stroke="url(#gradient)" stroke-width="5"/>
  
  <!-- Text "EASY" -->
  <text x="100" y="75" font-family="Arial, sans-serif" font-size="36" font-weight="bold" fill="#3366FF" text-anchor="middle">EASY</text>
  
  <!-- Text "AI" with gear icon -->
  <text x="100" y="115" font-family="Arial, sans-serif" font-size="40" font-weight="bold" fill="#3366FF" text-anchor="middle">AI</text>
  
  <!-- Gear Icon (representing AI/technology) -->
  <circle cx="155" cy="115" r="15" fill="none" stroke="#3366FF" stroke-width="3"/>
  <circle cx="155" cy="115" r="8" fill="none" stroke="#3366FF" stroke-width="2"/>
  <line x1="155" y1="92" x2="155" y2="100" stroke="#3366FF" stroke-width="3" stroke-linecap="round"/>
  <line x1="155" y1="130" x2="155" y2="138" stroke="#3366FF" stroke-width="3" stroke-linecap="round"/>
  <line x1="132" y1="115" x2="140" y2="115" stroke="#3366FF" stroke-width="3" stroke-linecap="round"/>
  <line x1="170" y1="115" x2="178" y2="115" stroke="#3366FF" stroke-width="3" stroke-linecap="round"/>
  <line x1="139" y1="99" x2="145" y2="105" stroke="#3366FF" stroke-width="3" stroke-linecap="round"/>
  <line x1="165" y1="125" x2="171" y2="131" stroke="#3366FF" stroke-width="3" stroke-linecap="round"/>
  <line x1="139" y1="131" x2="145" y2="125" stroke="#3366FF" stroke-width="3" stroke-linecap="round"/>
  <line x1="165" y1="105" x2="171" y2="99" stroke="#3366FF" stroke-width="3" stroke-linecap="round"/>
  
  <!-- Text "ANALYTICS" -->
  <text x="100" y="152" font-family="Arial, sans-serif" font-size="24" font-weight="bold" fill="#3366FF" text-anchor="middle">ANALYTICS</text>
  
  <!-- Chart Visualization Icon -->
  <line x1="40" y1="170" x2="40" y2="150" stroke="#3366FF" stroke-width="5" stroke-linecap="round"/>
  <line x1="55" y1="170" x2="55" y2="140" stroke="#3366FF" stroke-width="5" stroke-linecap="round"/>
  <line x1="70" y1="170" x2="70" y2="155" stroke="#3366FF" stroke-width="5" stroke-linecap="round"/>
  <line x1="85" y1="170" x2="85" y2="145" stroke="#3366FF" stroke-width="5" stroke-linecap="round"/>
  
  <!-- Line Graph Visualization Icon -->
  <polyline points="115,170 125,155 135,165 145,150 155,160 165,145" 
            stroke="#3366FF" stroke-width="3" fill="none" stroke-linejoin="round" stroke-linecap="round"/>
</svg>